<?xml version="1.0" standalone="no"?>
<!DOCTYPE svg PUBLIC "-//W3C//DTD SVG 20010904//EN"
 "http://www.w3.org/TR/2001/REC-SVG-20010904/DTD/svg10.dtd">
<svg version="1.0" xmlns="http://www.w3.org/2000/svg"
 width="512.000000pt" height="512.000000pt" viewBox="0 0 512.000000 512.000000"
 preserveAspectRatio="xMidYMid meet">
<metadata>
Created by potrace 1.11, written by Peter Selinger 2001-2013
</metadata>
<g transform="translate(0.000000,512.000000) scale(0.100000,-0.100000)"
fill="#000000" stroke="none">
<path d="M2243 5104 c-368 -44 -746 -182 -1057 -384 -185 -121 -254 -176 -419
-339 -395 -387 -638 -863 -734 -1436 -26 -158 -26 -602 0 -760 94 -564 327
-1026 715 -1418 379 -384 850 -630 1382 -724 175 -30 510 -42 680 -24 634 68
1179 339 1616 801 281 299 502 699 604 1094 63 246 75 346 75 646 0 292 -8
374 -60 595 -154 659 -572 1234 -1161 1597 -303 187 -662 311 -1020 353 -158
18 -466 18 -621 -1z m1531 -1604 c42 -46 52 -87 33 -132 -17 -40 -101 -133
-1093 -1208 -419 -454 -774 -831 -788 -838 -37 -17 -53 -15 -95 9 -51 31 -653
687 -670 732 -18 49 -8 83 43 134 35 35 50 43 79 43 19 0 43 -3 52 -6 10 -4
134 -133 277 -288 143 -155 263 -282 268 -284 5 -2 309 322 676 720 721 780
1040 1123 1070 1149 43 38 96 27 148 -31z"/>
</g>
</svg>
